# xmcd
#
# Track frame offsets: 
#        150
#        23332
#        45291
#        63390
#        84035
#        103227
#        123651
#        140600
#        162396
#        179948
#        199554
#        218312
#
# Disc length: 3217 seconds
#
# Revision: 0
# Processed by: cddbd v1.5.2PL0 Copyright (c) Steve Scherf et al.
# Submitted via: ExactAudioCopy v0.99pb4
#
DISCID=9c0c8f0c
DTITLE=Tata Young - Tata Remix
DYEAR=1998
DGENRE=Thai
TTITLE0=Oo Oui (Chiness Mix) 
TTITLE1=Suk ka nid (House Mix)
TTITLE2=Hello (House Mix feat. Mos Patiparn)
TTITLE3=Malaeng (Jungle Mix) 
TTITLE4=Rob kuan ma ruk kun (Hip Hop Mix) 
TTITLE5=Kor tarm suk noi (Euro Mix) 
TTITLE6=Jaii (Techno Mix) 
TTITLE7=Da Dee Da (House Mix) 
TTITLE8=Chun ruk ter (Mega Mix) 
TTITLE9=Proong nee mai sai (House Mix) 
TTITLE10=Ruk ter dai mai (Euro Mix)
TTITLE11=Oo Oui (Chinese Mix, Backing Track)
EXTD=
EXTT0=
EXTT1=
EXTT2=
EXTT3=
EXTT4=
EXTT5=
EXTT6=
EXTT7=
EXTT8=
EXTT9=
EXTT10=
EXTT11=
PLAYORDER=
